<svg xmlns:xlink="http://www.w3.org/1999/xlink" xmlns="http://www.w3.org/2000/svg" version="1.1" id="Layer_1" x="0px" y="0px" viewBox="0 0 64 64" style="enable-background: new 0 0 64 64">
<style type="text/css">
	.st0{fill:none;stroke:#EA232A;stroke-width:2.1742;stroke-miterlimit:10;}
</style>

<g>
	<path class="st0" d="M55.2,29.9v15.8l0,0c0,2.6-1.6,4.9-3.9,6c-4.1,1.8-11,4.1-19.3,4.1s-15.2-2.3-19.3-4.1c-2.4-1-3.9-3.4-3.9-6   V30.1" />
	<path class="st0" d="M27.8,7.3L3.6,20.6c-2.4,1.3-2.4,4.7,0,6l24.1,13.3c2.6,1.5,5.8,1.5,8.5,0l24.1-13.3c2.4-1.3,2.4-4.7,0-6   L36.2,7.3C33.6,5.9,30.4,5.9,27.8,7.3z" />
	<ellipse class="st0" cx="32" cy="23.6" rx="4.4" ry="2.6" />
	<path class="st0" d="M48.2,44.3V33.7l-16-10.3" />
	<path class="st0" d="M51,47.1v9.4c0,0.7-0.6,1.3-1.3,1.3h-3.1c-0.7,0-1.3-0.6-1.3-1.3v-9.4" />
	<circle class="st0" cx="48.2" cy="47" r="2.8" />
</g>
</svg>