<svg xmlns:xlink="http://www.w3.org/1999/xlink" xmlns="http://www.w3.org/2000/svg" version="1.1" id="Layer_1" x="0px" y="0px" viewBox="0 0 64 64" style="enable-background: new 0 0 64 64">
<style type="text/css">
	.st0{display:none;}
	.st1{display:inline;fill:none;stroke:#878787;stroke-width:2.1742;stroke-miterlimit:10;}
	.st2{fill:none;stroke:#EA232A;stroke-width:1.8877;stroke-miterlimit:10;}
</style>

<g class="st0">
	<path class="st1" d="M55.2,29.9v15.8l0,0c0,2.6-1.6,4.9-3.9,6c-4.1,1.8-11,4.1-19.3,4.1s-15.2-2.3-19.3-4.1c-2.4-1-3.9-3.4-3.9-6   V30.1" />
	<path class="st1" d="M27.8,7.3L3.6,20.6c-2.4,1.3-2.4,4.7,0,6l24.1,13.3c2.6,1.5,5.8,1.5,8.5,0l24.1-13.3c2.4-1.3,2.4-4.7,0-6   L36.2,7.3C33.6,5.9,30.4,5.9,27.8,7.3z" />
	<ellipse class="st1" cx="32" cy="23.6" rx="4.4" ry="2.6" />
	<path class="st1" d="M48.2,44.3V33.7l-16-10.3" />
	<path class="st1" d="M51,47.1v9.4c0,0.7-0.6,1.3-1.3,1.3h-3.1c-0.7,0-1.3-0.6-1.3-1.3v-9.4" />
	<circle class="st1" cx="48.2" cy="47" r="2.8" />
</g>
<g>
	<path class="st2" d="M31.9,10.9V3c0-0.3,0.2-0.5,0.5-0.5h7.3c0.3,0,0.5,0.2,0.5,0.5v4.2c0,0.3-0.2,0.5-0.5,0.5h-4.2" />
	<path class="st2" d="M49.7,26.4h12v-1.6c0-0.3,0.2-0.5,0.5-0.5s0.5,0.2,0.5,0.5v36.7 M53.8,61.2H10.1 M5.5,56.5   c-2.3-0.3-4.2-2.3-4.2-4.7c0-3.6,0.8-13,4.7-13c3.8,0,4.7,9.4,4.7,13c0,2.4-1.9,4.4-4.2,4.7H5.5z M13.4,57.5h9.9V46.1h-1.6   c-0.3,0-0.5-0.7-0.5-1s0.2-1,0.5-1h20.6c0.3,0,0.5,0.7,0.5,1s-0.2,1-0.5,1h-1.6v11.4h9.9 M32.5,57.5h6.2V46.1h-6.2h-1h-6.2v11.4   h6.2H32.5z M31,52.4c-0.3,0-0.5-0.2-0.5-0.5s0.2-0.5,0.5-0.5h2.1c0.3,0,0.5,0.2,0.5,0.5s-0.2,0.5-0.5,0.5H31z M46,22.7v31.2    M18,53.9V23.8 M55.9,53.4h-4.2c-0.3,0-0.5-0.2-0.5-0.5v-6.2c0-0.3,0.2-0.5,0.5-0.5h4.2c0.3,0,0.5,0.2,0.5,0.5v6.2   C56.4,53.2,56.2,53.4,55.9,53.4z M55.9,40.9h-4.2c-0.3,0-0.5-0.2-0.5-0.5v-6.2c0-0.3,0.2-0.5,0.5-0.5h4.2c0.3,0,0.5,0.2,0.5,0.5   v6.2C56.4,40.7,56.2,40.9,55.9,40.9z M39.3,39.9h-4.2c-0.3,0-0.5-0.2-0.5-0.5v-6.2c0-0.3,0.2-0.5,0.5-0.5h4.2   c0.3,0,0.5,0.2,0.5,0.5v6.2C39.8,39.7,39.6,39.9,39.3,39.9z M28.9,39.9h-4.2c-0.3,0-0.5-0.2-0.5-0.5v-6.2c0-0.3,0.2-0.5,0.5-0.5   h4.2c0.3,0,0.5,0.2,0.5,0.5v6.2C29.4,39.7,29.2,39.9,28.9,39.9z M7.6,35.2v-2.1c0-0.3,0.2-0.5,0.5-0.5h4.2c0.3,0,0.5,0.2,0.5,0.5   v6.2 M1.3,36.2V24.8c0-0.3,0.2-0.5,0.5-0.5s0.5,0.2,0.5,0.5v1.6h12 M39.3,27.4h-4.2c-0.3,0-0.5-0.2-0.5-0.5v-6.2   c0-0.3,0.2-0.5,0.5-0.5h4.2c0.3,0,0.5,0.2,0.5,0.5v6.2C39.8,27.2,39.6,27.4,39.3,27.4z M28.9,27.4h-4.2c-0.3,0-0.5-0.2-0.5-0.5   v-6.2c0-0.3,0.2-0.5,0.5-0.5h4.2c0.3,0,0.5,0.2,0.5,0.5v6.2C29.4,27.2,29.2,27.4,28.9,27.4z M47.3,20L32,10.9L16.7,20" />
	<line class="st2" x1="32" y1="52.4" x2="32" y2="57.5" />
	<line class="st2" x1="32" y1="46" x2="32" y2="51.3" />
	<line class="st2" x1="6" y1="61.2" x2="6" y2="56.5" />
</g>
</svg>