<svg xmlns:xlink="http://www.w3.org/1999/xlink" xmlns="http://www.w3.org/2000/svg" version="1.1" id="Layer_1" x="0px" y="0px" viewBox="0 0 64 64" style="enable-background: new 0 0 64 64">
<style type="text/css">
	.st0{display:none;}
	.st1{display:inline;fill:none;stroke:#878787;stroke-width:2.1742;stroke-miterlimit:10;}
	.st2{display:inline;fill:none;stroke:#878787;stroke-width:1.8877;stroke-miterlimit:10;}
	.st3{display:inline;fill:none;stroke:#878787;stroke-width:1.7406;stroke-miterlimit:10;}
	.st4{fill:none;stroke:#EA232A;stroke-width:1.9024;stroke-miterlimit:10;}
</style>

<g class="st0">
	<path class="st1" d="M55.2,29.9v15.8l0,0c0,2.6-1.6,4.9-3.9,6c-4.1,1.8-11,4.1-19.3,4.1s-15.2-2.3-19.3-4.1c-2.4-1-3.9-3.4-3.9-6   V30.1" />
	<path class="st1" d="M27.8,7.3L3.6,20.6c-2.4,1.3-2.4,4.7,0,6l24.1,13.3c2.6,1.5,5.8,1.5,8.5,0l24.1-13.3c2.4-1.3,2.4-4.7,0-6   L36.2,7.3C33.6,5.9,30.4,5.9,27.8,7.3z" />
	<ellipse class="st1" cx="32" cy="23.6" rx="4.4" ry="2.6" />
	<path class="st1" d="M48.2,44.3V33.7l-16-10.3" />
	<path class="st1" d="M51,47.1v9.4c0,0.7-0.6,1.3-1.3,1.3h-3.1c-0.7,0-1.3-0.6-1.3-1.3v-9.4" />
	<circle class="st1" cx="48.2" cy="47" r="2.8" />
</g>
<g class="st0">
	<path class="st2" d="M31.9,10.9V3c0-0.3,0.2-0.5,0.5-0.5h7.3c0.3,0,0.5,0.2,0.5,0.5v4.2c0,0.3-0.2,0.5-0.5,0.5h-4.2" />
	<path class="st2" d="M49.7,26.4h12v-1.6c0-0.3,0.2-0.5,0.5-0.5s0.5,0.2,0.5,0.5v36.7 M53.8,61.2H10.1 M5.5,56.5   c-2.3-0.3-4.2-2.3-4.2-4.7c0-3.6,0.8-13,4.7-13c3.8,0,4.7,9.4,4.7,13c0,2.4-1.9,4.4-4.2,4.7H5.5z M13.4,57.5h9.9V46.1h-1.6   c-0.3,0-0.5-0.7-0.5-1s0.2-1,0.5-1h20.6c0.3,0,0.5,0.7,0.5,1s-0.2,1-0.5,1h-1.6v11.4h9.9 M32.5,57.5h6.2V46.1h-6.2h-1h-6.2v11.4   h6.2H32.5z M31,52.4c-0.3,0-0.5-0.2-0.5-0.5s0.2-0.5,0.5-0.5h2.1c0.3,0,0.5,0.2,0.5,0.5s-0.2,0.5-0.5,0.5H31z M46,22.7v31.2    M18,53.9V23.8 M55.9,53.4h-4.2c-0.3,0-0.5-0.2-0.5-0.5v-6.2c0-0.3,0.2-0.5,0.5-0.5h4.2c0.3,0,0.5,0.2,0.5,0.5v6.2   C56.4,53.2,56.2,53.4,55.9,53.4z M55.9,40.9h-4.2c-0.3,0-0.5-0.2-0.5-0.5v-6.2c0-0.3,0.2-0.5,0.5-0.5h4.2c0.3,0,0.5,0.2,0.5,0.5   v6.2C56.4,40.7,56.2,40.9,55.9,40.9z M39.3,39.9h-4.2c-0.3,0-0.5-0.2-0.5-0.5v-6.2c0-0.3,0.2-0.5,0.5-0.5h4.2   c0.3,0,0.5,0.2,0.5,0.5v6.2C39.8,39.7,39.6,39.9,39.3,39.9z M28.9,39.9h-4.2c-0.3,0-0.5-0.2-0.5-0.5v-6.2c0-0.3,0.2-0.5,0.5-0.5   h4.2c0.3,0,0.5,0.2,0.5,0.5v6.2C29.4,39.7,29.2,39.9,28.9,39.9z M7.6,35.2v-2.1c0-0.3,0.2-0.5,0.5-0.5h4.2c0.3,0,0.5,0.2,0.5,0.5   v6.2 M1.3,36.2V24.8c0-0.3,0.2-0.5,0.5-0.5s0.5,0.2,0.5,0.5v1.6h12 M39.3,27.4h-4.2c-0.3,0-0.5-0.2-0.5-0.5v-6.2   c0-0.3,0.2-0.5,0.5-0.5h4.2c0.3,0,0.5,0.2,0.5,0.5v6.2C39.8,27.2,39.6,27.4,39.3,27.4z M28.9,27.4h-4.2c-0.3,0-0.5-0.2-0.5-0.5   v-6.2c0-0.3,0.2-0.5,0.5-0.5h4.2c0.3,0,0.5,0.2,0.5,0.5v6.2C29.4,27.2,29.2,27.4,28.9,27.4z M47.3,20L32,10.9L16.7,20" />
	<line class="st2" x1="32" y1="52.4" x2="32" y2="57.5" />
	<line class="st2" x1="32" y1="46" x2="32" y2="51.3" />
	<line class="st2" x1="6" y1="61.2" x2="6" y2="56.5" />
</g>
<g class="st0">
	<path class="st3" d="M32.2,36c0.1,0,0.1,0.1,0.2,0.2c0.1,0.2,2.4,5.9-0.8,13.2c0,0.1-0.1,0.2-0.2,0.2h-0.1c-0.1,0-0.3-0.1-0.3-0.2   l-0.8-2.3l-2,1.1c-0.1,0.1-0.3,0-0.4,0c-0.1-0.1-0.1-0.2-0.1-0.4c2.5-5.7,1.2-11.4,1.2-11.4" />
	<path class="st3" d="M38.6,33.5c0.1,0.3,2.6,7.7,9.6,10.9c0.1,0.1,0.2,0.2,0.2,0.3S48.3,45,48.1,45L46,45.5l0.8,2.2   c0,0,0,0.1,0.1,0.1c0,0.2-0.1,0.4-0.2,0.4l0,0c-0.1,0-0.1,0-0.2,0c-8.9-4-11-12.4-11.1-12.8" />
	<path class="st3" d="M28.8,36.1c-9.2,2.8-18,6.4-21.7,9.2c-0.1,0.2-0.3,0.3-0.5,0.4c-1.5,0.4-3.4-3.6-4.5-7.9   c-1.1-4.2-1.4-8.7,0.1-9.1c0.2-0.1,0.4,0,0.7,0.1c4.6,0.7,13.3-0.3,22.6-2.3 M35.4,24c9.1-2.8,17.8-6.3,21.4-9.2   c0.2-0.2,0.3-0.3,0.5-0.4c1.5-0.4,3.4,3.6,4.5,7.9c1.1,4.2,1.4,8.7-0.1,9.1c-0.2,0.1-0.4,0-0.7-0.1c-4.5-0.7-13.2,0.3-22.5,2.3" />
	<path class="st3" d="M34.5,36.8c-0.4,0.1-0.8,0-1.2-0.3c-0.6-0.5-1.6-0.4-2.1,0.1C31,36.8,30.7,37,30.5,37c-0.7,0.2-1.3-0.2-1.5-1   c-0.2-0.7-1-1.3-1.8-1.2c-0.6,0.1-1-0.1-1.3-0.4c-0.3-0.3-0.3-0.8-0.1-1.4c0.3-0.7-0.1-1.6-0.8-2c-0.5-0.3-0.8-0.7-0.8-1.1   s0.2-0.9,0.7-1.2c0.6-0.4,0.9-1.4,0.5-2c-0.2-0.4-0.3-0.9-0.1-1.2c0.2-0.5,0.7-0.7,1.3-0.7c0.8,0,1.5-0.6,1.6-1.3   c0.1-0.6,0.4-1,0.9-1.2c0.4-0.1,0.8,0,1.2,0.3c0.6,0.5,1.6,0.4,2.1-0.1c0.2-0.2,0.5-0.4,0.7-0.4c0.7-0.2,1.3,0.2,1.5,1   c0.2,0.7,1,1.3,1.8,1.2c0.6-0.1,1,0.1,1.3,0.4s0.3,0.8,0.1,1.4c-0.3,0.7,0.1,1.6,0.8,2c0.5,0.3,0.8,0.7,0.8,1.1s-0.2,0.9-0.7,1.2   c-0.6,0.4-0.9,1.4-0.5,2c0.2,0.4,0.3,0.9,0.1,1.2c-0.2,0.4-0.7,0.7-1.3,0.7c-0.8,0-1.5,0.6-1.6,1.3C35.3,36.2,35,36.6,34.5,36.8z" />
	<path class="st3" d="M32.9,33.4c-2.1,0.6-4.3-0.7-4.9-2.9s0.7-4.3,2.9-4.9c2.1-0.6,4.3,0.7,4.9,2.9C36.3,30.6,35,32.8,32.9,33.4z" />
</g>
<g>
	<g>
		<g>
			<g>
				<g>
					<path class="st4" d="M48,27.9v-2.5" />
					<path class="st4" d="M2.6,25.4v15.9c0,1.8,1.4,3.2,3.2,3.2h31.5" />
				</g>
			</g>
		</g>
		<g>
			<g>
				<g>
					<path class="st4" d="M45.8,11.9H4.7c-1.8,0-3.2,1.4-3.2,3.2V22c0,1.5,1.1,2.8,2.5,3.1L21,29v3.5c0,0.6,0.4,1.1,1.1,1.1h6.5       c0.6,0,1.1-0.4,1.1-1.1V29l17-3.8c1.4-0.3,2.5-1.6,2.5-3.1v-6.9C49.1,13.3,47.7,11.9,45.8,11.9z M27.4,31.4h-4.3v-4.3h4.3       C27.4,27.1,27.4,31.4,27.4,31.4z" />
				</g>
			</g>
		</g>
		<g>
			<g>
				<g>
					<path class="st4" d="M33.9,11.2V8.9c0-1.8-1.4-3.2-3.2-3.2H19.9c-1.8,0-3.2,1.4-3.2,3.2v2.3" />
				</g>
			</g>
		</g>
	</g>
	<g>
		<g>
			<g>
				<path class="st4" d="M60.3,28.2H43.7c-1.2,0-2.1,1-2.1,2.1v1.4h-2c-1.2,0-2.1,1-2.1,2.1v22.3c0,1.2,1,2.1,2.1,2.1h16.6      c1.2,0,2.1-1,2.1-2.1v-1.4h2c1.2,0,2.1-1,2.1-2.1V30.4C62.5,29.2,61.5,28.2,60.3,28.2z M41.6,31.6v21.1c0,1.2,1,2.1,2.1,2.1h15" />
				<path class="st4" d="M58.3,33.5H45.7" />
				<path class="st4" d="M58.3,37.6H45.7" />
				<path class="st4" d="M58.3,41.7H45.7" />
				<path class="st4" d="M58.3,45.8H45.7" />
			</g>
		</g>
	</g>
</g>
</svg>